# xmcd
#
# Track frame offsets: 
#        150
#        22062
#        40612
#        60493
#        81968
#        104453
#        116219
#        137290
#        151109
#        166373
#        185947
#        208498
#        229377
#        246844
#        261447
#        281660
#
# Disc length: 3898 seconds
#
# Revision: 0
# Processed by: cddbd v1.5.2PL0 Copyright (c) Steve Scherf et al.
# Submitted via: ExactAudioCopy v1.0b3
#
DISCID=ed0f3810
DTITLE=合辑 - 草原歌典-第三辑
DYEAR=2006
DGENRE=
TTITLE0=蓝色的蒙古高原
TTITLE1=牧歌
TTITLE2=我思念草原
TTITLE3=这一天
TTITLE4=我是蒙古人
TTITLE5=阿里河母亲河
TTITLE6=永远的草原
TTITLE7=牵手草原
TTITLE8=青城之歌
TTITLE9=这是我的家乡
TTITLE10=旷野的尽头
TTITLE11=假如我是朵雪花
TTITLE12=鸿嘎鲁
TTITLE13=成吉思汗的的两匹骏马
TTITLE14=毡房里的悄悄话
TTITLE15=各族人民心连心
EXTD=
EXTT0=
EXTT1=
EXTT2=
EXTT3=
EXTT4=
EXTT5=
EXTT6=
EXTT7=
EXTT8=
EXTT9=
EXTT10=
EXTT11=
EXTT12=
EXTT13=
EXTT14=
EXTT15=
PLAYORDER=
